<svg xmlns="http://www.w3.org/2000/svg" style="display: none;">
    <symbol id="icon-fb" viewBox="0 0 32 32"><path d="M19 6h5V0h-5c-3.86 0-7 3.14-7 7v3H8v6h4v16h6V16h5l1-6h-6V7c0-.542.458-1 1-1z"/></symbol>
    <symbol id="icon-tw" viewBox="0 0 32 32"><path d="M32 7.075c-1.175.525-2.444.875-3.769 1.031 1.356-.813 2.394-2.1 2.887-3.631-1.269.75-2.675 1.3-4.169 1.594C25.75 4.794 24.038 4 22.138 4c-3.663 0-6.625 2.963-6.625 6.625 0 .519.056 1.025.169 1.513C10.169 11.863 5.381 9.231 2.2 5.269c-.569.981-.894 2.119-.894 3.331 0 2.3 1.169 4.331 2.944 5.519-1.075-.031-2.088-.331-2.994-.831v.081c0 3.213 2.281 5.888 5.313 6.494-.556.15-1.144.231-1.75.231-.425 0-.844-.044-1.244-.119.844 2.631 3.288 4.544 6.181 4.594-2.263 1.775-5.113 2.831-8.213 2.831-.531 0-1.056-.031-1.569-.094 2.931 1.881 6.4 2.981 10.119 2.981 12.138 0 18.775-10.05 18.775-18.775 0-.288-.006-.569-.019-.85 1.288-.931 2.4-2.094 3.281-3.419z"/></symbol>
    <symbol id="icon-ig" viewBox="0 0 32 32"><path d="M16 2.881c4.275 0 4.781.019 6.469.094 1.563.069 2.406.331 2.969.55.75.294 1.281.638 1.838 1.194.556.556.9 1.088 1.194 1.838.219.563.481 1.406.55 2.969.075 1.688.094 2.194.094 6.469s-.019 4.781-.094 6.469c-.069 1.563-.331 2.406-.55 2.969-.294.75-.638 1.281-1.194 1.838-.556.556-1.088.9-1.838 1.194-.563.219-1.406.481-2.969.55-1.688.075-2.194.094-6.469.094s-4.781-.019-6.469-.094c-1.563-.069-2.406-.331-2.969-.55-.75-.294-1.281-.638-1.838-1.194-.556-.556-.9-1.088-1.194-1.838-.219-.563-.481-1.406-.55-2.969-.075-1.688-.094-2.194-.094-6.469s.019-4.781.094-6.469c.069-1.563.331-2.406.55-2.969.294-.75.638-1.281 1.194-1.838.556-.556 1.088-.9 1.838-1.194.563-.219 1.406-.481 2.969-.55 1.688-.075 2.194-.094 6.469-.094M16 0c-4.344 0-4.888.019-6.594.094-1.7.075-2.869.35-3.881.744-1.056.413-1.95.956-2.844 1.85-.894.894-1.438 1.788-1.85 2.844-.394 1.013-.669 2.181-.744 3.881C.019 11.113 0 11.656 0 16s.019 4.888.094 6.594c.075 1.7.35 2.869.744 3.881.413 1.056.956 1.95 1.85 2.844.894.894 1.788 1.438 2.844 1.85 1.013.394 2.181.669 3.881.744 1.706.075 2.25.094 6.594.094s4.888-.019 6.594-.094c1.7-.075 2.869-.35 3.881-.744 1.056-.413 1.95-.956 2.844-1.85.894-.894 1.438-1.788 1.85-2.844.394-1.013.669-2.181.744-3.881.075-1.706.094-2.25.094-6.594s-.019-4.888-.094-6.594c-.075-1.7-.35-2.869-.744-3.881-.413-1.056-.956-1.95-1.85-2.844-.894-.894-1.788-1.438-2.844-1.85-1.013-.394-2.181-.669-3.881-.744C20.888.019 20.344 0 16 0zm0 7.781c-4.537 0-8.219 3.681-8.219 8.219S11.463 24.219 16 24.219 24.219 20.538 24.219 16 20.538 7.781 16 7.781zm0 13.556c-2.944 0-5.337-2.394-5.337-5.337S13.056 10.663 16 10.663 21.337 13.056 21.337 16 18.944 21.337 16 21.337zm5.244-14.775c0 .794-.644 1.438-1.438 1.438s-1.438-.644-1.438-1.438.644-1.438 1.438-1.438 1.438.644 1.438 1.438z"/></symbol>
    <symbol id="icon-arrow-down" viewBox="0 0 24 24"><path d="M7.41 8.59L12 13.17l4.59-4.58L18 10l-6 6-6-6 1.41-1.41z"/></symbol>
    <symbol id="icon-pin" viewBox="0 0 24 24"><path d="M12 2C8.13 2 5 5.13 5 9c0 5.25 7 13 7 13s7-7.75 7-13c0-3.87-3.13-7-7-7zm0 9.5a2.5 2.5 0 0 1 0-5 2.5 2.5 0 0 1 0 5z"/></symbol>
</svg>
